<?xml version="1.0" standalone="no"?>
<!DOCTYPE svg PUBLIC "-//W3C//DTD SVG 20010904//EN"
 "http://www.w3.org/TR/2001/REC-SVG-20010904/DTD/svg10.dtd">
<svg version="1.0" xmlns="http://www.w3.org/2000/svg"
 width="512.000000pt" height="512.000000pt" viewBox="0 0 512.000000 512.000000"
 preserveAspectRatio="xMidYMid meet">

<g transform="translate(0.000000,512.000000) scale(0.100000,-0.100000)"
fill="rgb(30 41 59)" stroke="none">
<path d="M1885 5095 c-36 -35 -32 -68 16 -120 l42 -45 -42 -45 c-55 -60 -55
-102 1 -131 37 -19 63 -11 111 34 l37 36 38 -36 c44 -43 71 -52 105 -37 25 11
47 47 47 75 0 8 -19 35 -41 59 l-42 45 42 45 c48 52 52 85 16 120 -35 36 -68
32 -120 -16 l-45 -42 -45 42 c-52 48 -85 52 -120 16z"/>
<path d="M3130 4999 c-55 -25 -115 -81 -142 -134 -26 -49 -35 -150 -18 -208
17 -64 76 -135 140 -171 49 -27 64 -31 135 -31 70 0 87 4 133 30 90 49 141
128 150 231 9 117 -57 231 -163 280 -66 31 -170 33 -235 3z m191 -150 c82 -58
76 -184 -12 -231 -148 -79 -276 127 -143 231 37 29 115 29 155 0z"/>
<path d="M1260 4655 c-94 -27 -170 -90 -218 -180 -24 -45 -27 -61 -27 -150 0
-89 3 -105 27 -150 50 -94 126 -155 227 -181 118 -30 246 9 329 100 68 74 87
124 87 231 0 78 -4 97 -28 146 -71 146 -245 226 -397 184z m195 -173 c103 -71
111 -224 16 -305 -30 -25 -87 -47 -121 -47 -37 0 -94 24 -127 53 -44 39 -63
82 -63 142 0 154 169 244 295 157z"/>
<path d="M2501 4384 c-19 -24 -21 -40 -21 -161 0 -129 1 -135 25 -158 13 -14
36 -25 50 -25 14 0 37 11 50 25 24 23 25 29 25 165 0 127 -2 142 -20 160 -30
30 -83 27 -109 -6z"/>
<path d="M3580 4360 c-32 -32 -26 -75 19 -123 l39 -42 -39 -42 c-45 -49 -51
-91 -19 -123 34 -34 80 -26 125 20 l38 39 43 -39 c50 -46 92 -52 124 -20 34
34 26 80 -20 125 l-40 39 40 41 c46 47 53 92 20 125 -33 33 -78 26 -125 -20
l-41 -40 -39 40 c-45 46 -91 54 -125 20z"/>
<path d="M2063 4275 c-12 -8 -24 -29 -28 -46 -6 -26 3 -48 64 -148 39 -65 78
-121 87 -125 36 -14 73 -6 93 20 12 15 21 34 21 43 0 24 -117 221 -146 249
-29 26 -61 28 -91 7z"/>
<path d="M2953 4258 c-26 -29 -128 -196 -137 -224 -17 -55 52 -111 103 -83 34
19 160 225 161 262 0 61 -85 91 -127 45z"/>
<path d="M2415 3725 c-100 -15 -223 -57 -295 -98 l-55 -32 -595 -5 c-595 -5
-595 -5 -637 -28 -24 -12 -54 -39 -67 -60 -14 -21 -167 -465 -353 -1027 l-327
-990 -4 -307 -3 -308 25 -25 c31 -30 65 -32 100 -4 l26 20 0 230 c0 216 1 230
20 249 19 19 33 20 499 20 264 0 487 -3 496 -6 9 -4 62 -102 119 -218 104
-215 137 -262 203 -287 33 -12 1953 -12 1986 0 66 25 99 72 203 287 57 116
110 214 119 218 9 3 232 6 496 6 466 0 480 -1 499 -20 20 -20 20 -33 20 -588
0 -538 -1 -570 -18 -585 -17 -16 -192 -17 -2314 -17 -2211 0 -2296 1 -2311 18
-15 16 -17 45 -17 201 0 180 0 182 -25 206 -31 32 -69 32 -100 0 -25 -24 -25
-26 -25 -207 0 -101 5 -200 11 -221 13 -49 63 -105 114 -128 38 -18 137 -19
2355 -19 2218 0 2317 1 2355 19 51 23 101 80 115 130 7 27 10 251 8 688 l-3
648 -164 490 c-207 622 -195 590 -231 605 -23 9 -34 9 -57 -2 -60 -29 -61 -25
115 -562 89 -272 162 -497 162 -500 0 -3 -71 -6 -157 -6 l-158 0 -193 588
-193 587 1 378 0 377 24 0 c14 0 31 -7 40 -15 8 -8 58 -147 111 -308 100 -304
112 -327 164 -327 33 0 71 37 71 69 0 39 -189 603 -215 643 -14 21 -44 48 -68
60 -42 23 -42 23 -637 28 l-595 5 -47 28 c-72 43 -202 87 -307 102 -114 18
-178 18 -286 0z m280 -150 c382 -67 656 -392 656 -780 0 -356 -230 -664 -571
-765 -91 -27 -110 -42 -110 -87 0 -72 56 -89 171 -52 326 105 576 379 642 704
l14 70 244 2 c134 2 250 -1 257 -6 7 -4 98 -265 201 -580 l189 -571 -262 0
c-241 0 -264 -2 -306 -21 -24 -11 -53 -28 -64 -37 -10 -9 -66 -111 -123 -227
-58 -115 -109 -216 -115 -222 -15 -19 -1901 -19 -1916 0 -6 6 -58 107 -115
224 -111 221 -129 246 -206 272 -22 7 -126 11 -291 11 l-258 0 189 571 c103
315 194 576 201 580 7 5 123 8 257 6 l244 -2 14 -70 c66 -325 316 -599 642
-704 81 -26 116 -26 141 -1 25 25 26 81 2 103 -10 9 -49 26 -87 38 -219 67
-386 211 -485 414 -60 124 -81 216 -81 354 1 324 190 603 495 730 137 57 280
72 431 46z m-1735 -512 l1 -378 -193 -587 -193 -588 -157 0 c-87 0 -158 3
-158 6 0 12 612 1868 623 1889 13 26 27 35 55 35 l22 0 0 -377z m900 372 c0
-3 -18 -28 -39 -55 -113 -143 -182 -311 -199 -486 l-7 -69 -252 -3 -253 -2 0
310 0 310 375 0 c206 0 375 -2 375 -5z m2150 -305 l0 -310 -252 2 -253 3 -7
70 c-17 173 -91 352 -204 492 -19 23 -34 44 -34 47 0 3 169 6 375 6 l375 0 0
-310z"/>
<path d="M2091 2924 c-27 -34 -26 -57 2 -88 47 -53 127 -25 127 44 0 67 -88
96 -129 44z"/>
<path d="M2920 2930 c-20 -20 -26 -54 -14 -85 10 -26 63 -45 93 -34 52 20 65
68 30 113 -26 33 -79 36 -109 6z"/>
<path d="M2445 2660 c-58 -18 -139 -74 -149 -103 -13 -36 8 -78 47 -91 23 -8
38 -4 92 23 58 30 71 33 129 29 48 -3 74 -10 105 -31 51 -34 85 -34 118 -1 20
20 24 31 19 57 -13 67 -120 121 -246 124 -47 1 -98 -2 -115 -7z"/>
<path d="M497 718 c-24 -19 -36 -59 -25 -87 17 -47 32 -50 206 -51 160 0 163
0 187 25 14 13 25 36 25 50 0 14 -11 37 -25 50 -24 25 -27 25 -188 25 -115 0
-168 -4 -180 -12z"/>
<path d="M515 490 c-49 -19 -64 -82 -30 -120 17 -19 30 -20 191 -20 l173 0 20
26 c12 15 21 33 21 40 0 29 -25 64 -53 74 -35 12 -293 13 -322 0z"/>
</g>
</svg>
